<?xml version="1.0" encoding="UTF-8"?>
<svg width="32px" height="32px" viewBox="0 0 32 32" version="1.1" xmlns="http://www.w3.org/2000/svg" xmlns:xlink="http://www.w3.org/1999/xlink">
    <title>Vite Logo</title>
    <defs>
        <linearGradient x1="50%" y1="0%" x2="50%" y2="100%" id="linearGradient-1">
            <stop stop-color="#41D1FF" offset="0%"></stop>
            <stop stop-color="#BD34FE" offset="100%"></stop>
        </linearGradient>
        <linearGradient x1="50%" y1="0%" x2="50%" y2="100%" id="linearGradient-2">
            <stop stop-color="#FFEA83" offset="0%"></stop>
            <stop stop-color="#FFDD35" offset="100%"></stop>
        </linearGradient>
    </defs>
    <g id="Page-1" stroke="none" stroke-width="1" fill="none" fill-rule="evenodd">
        <g id="vite-logo">
            <path d="M29.8836,6.0392 L16.0641,29.8942 C15.8661,30.2262 15.3661,30.2302 15.1641,29.9022 L0.8341,6.0392 C0.6111,5.6652 0.9251,5.1952 1.3541,5.2672 L15.5801,7.5602 C15.6461,7.5722 15.7141,7.5722 15.7801,7.5602 L29.3641,5.2672 C29.7931,5.1952 30.1071,5.6652 29.8836,6.0392 Z" id="Path" fill="url(#linearGradient-1)" fill-rule="nonzero"></path>
            <path d="M21.6641,0.2052 L12.5461,1.7782 C12.3821,1.8092 12.2561,1.9402 12.2321,2.1052 L10.3981,14.1002 C10.3671,14.3162 10.5301,14.5112 10.7461,14.5112 L13.7341,14.5112 C13.9641,14.5112 14.1321,14.7252 14.0881,14.9512 L12.9321,20.2022 C12.8761,20.4822 13.2181,20.6892 13.4321,20.4942 L13.5461,20.3882 L18.8461,13.3382 C18.9941,13.1442 18.8541,12.8582 18.6141,12.8582 L15.6081,12.8582 C15.3681,12.8582 15.2281,12.5942 15.3521,12.3942 L18.4461,6.9942 L21.7941,1.0052 C21.9461,0.7292 21.8641,0.1752 21.6641,0.2052 Z" id="Path" fill="url(#linearGradient-2)" fill-rule="nonzero"></path>
        </g>
    </g>
</svg>
